<!-- icon666.com - MILLIONS vector ICONS FREE --><svg version="1.1" id="Capa_1" xmlns="http://www.w3.org/2000/svg" xmlns:xlink="http://www.w3.org/1999/xlink" x="0px" y="0px" viewBox="0 0 512.001 512.001" style="enable-background:new 0 0 512.001 512.001;" xml:space="preserve"><rect x="34.203" y="57.321" style="fill:#DC5A64;" width="443.606" height="422.879"/><path style="fill:#C13247;" d="M477.803,83.865H34.199v108.964c6.853,1.89,14.059,2.921,21.505,2.921 c18.895,0,36.283-6.522,50.074-17.409c13.791,10.887,31.18,17.409,50.074,17.409s36.283-6.522,50.074-17.409 c13.791,10.887,31.18,17.409,50.074,17.409s36.283-6.522,50.074-17.409c13.791,10.887,31.18,17.409,50.074,17.409 c18.895,0,36.283-6.522,50.074-17.409c13.791,10.887,31.18,17.409,50.074,17.409c7.446,0,14.651-1.03,21.505-2.921V83.865H477.803z"/><g><polygon style="fill:#00AD94;" points="356.15,69.904 306.075,0 306.075,0 205.927,0 155.852,64.095 205.927,114.77 256.001,139.808 306.075,114.77 306.075,114.77 "/><path style="fill:#00AD94;" d="M105.778,0H31.422C17.176,0,5.629,11.547,5.629,25.793v88.978l50.074,25.038l50.074-25.038 l50.074-50.676L105.778,0z"/><path style="fill:#00AD94;" d="M480.581,0h-74.356L356.15,64.095l50.074,50.676l50.074,25.038l50.074-25.038V25.793 C506.373,11.547,494.826,0,480.581,0z"/></g><polygon style="fill:#D4D2D3;" points="105.778,114.77 105.778,0 205.927,0 205.927,114.77 155.852,139.808 "/><path style="fill:#2FC8B4;" d="M105.778,114.77c0,27.655-22.419,50.074-50.074,50.074l0,0c-27.655,0-50.074-22.419-50.074-50.074 C5.63,114.77,105.778,114.77,105.778,114.77z"/><polygon style="fill:#D4D2D3;" points="406.224,114.77 406.224,0 306.075,0 306.075,114.77 356.15,139.808 "/><path style="fill:#2FC8B4;" d="M406.224,114.77c0,27.655,22.419,50.074,50.074,50.074l0,0c27.655,0,50.074-22.419,50.074-50.074 C506.372,114.77,406.224,114.77,406.224,114.77z"/><path style="fill:#EFEDEE;" d="M207.405,225.464H104.3c-13.011,0-23.559,10.548-23.559,23.559v231.175h150.223V249.024 C230.964,236.012,220.417,225.464,207.405,225.464z"/><rect x="113.002" y="257.72" style="fill:#00A6C8;" width="85.711" height="222.478"/><path style="fill:#42C3E2;" d="M406.102,225.464h-99.903c-13.895,0-25.16,11.265-25.16,25.16v102.206h150.223V250.624 C431.262,236.729,419.997,225.464,406.102,225.464z"/><rect x="270.63" y="335.612" style="fill:#EFEDEE;" width="171.031" height="39.663"/><g><path style="fill:#3A484A;" d="M157.285,69.898c-4.267,0-7.726-3.459-7.726-7.726V44.306c0-4.267,3.459-7.726,7.726-7.726 c4.267,0,7.726,3.459,7.726,7.726v17.865C165.011,66.439,161.553,69.898,157.285,69.898z"/><path style="fill:#3A484A;" d="M354.716,69.898c-4.267,0-7.726-3.459-7.726-7.726V44.306c0-4.267,3.459-7.726,7.726-7.726 c4.267,0,7.726,3.459,7.726,7.726v17.865C362.442,66.439,358.984,69.898,354.716,69.898z"/><path style="fill:#3A484A;" d="M256.001,79.435c-11.726,0-22.727-4.892-30.182-13.421c-2.808-3.213-2.481-8.094,0.732-10.902 c3.212-2.808,8.093-2.481,10.902,0.732c4.52,5.172,11.282,8.138,18.547,8.138s14.026-2.966,18.546-8.138 c2.809-3.213,7.69-3.54,10.902-0.732c3.213,2.808,3.541,7.689,0.732,10.902C278.727,74.543,267.727,79.435,256.001,79.435z"/></g><path style="fill:#2FC8B4;" d="M306.075,114.77c0,27.655-22.419,50.074-50.074,50.074l0,0c-27.655,0-50.074-22.419-50.074-50.074 C205.927,114.77,306.075,114.77,306.075,114.77z"/><g><path style="fill:#EFEDEE;" d="M205.927,114.77c0,27.655-22.419,50.074-50.074,50.074l0,0c-27.655,0-50.074-22.419-50.074-50.074 C105.779,114.77,205.927,114.77,205.927,114.77z"/><path style="fill:#EFEDEE;" d="M306.075,114.77c0,27.655,22.419,50.074,50.074,50.074l0,0c27.655,0,50.074-22.419,50.074-50.074 C406.223,114.77,306.075,114.77,306.075,114.77z"/></g><rect x="12.194" y="448.397" style="fill:#D4D2D3;" width="487.616" height="63.604"/></svg>